<?xml version="1.0" encoding="UTF-8" standalone="no"?>
<!-- Created with Inkscape (http://www.inkscape.org/) -->

<svg
   xmlns:dc="http://purl.org/dc/elements/1.1/"
   xmlns:cc="http://creativecommons.org/ns#"
   xmlns:rdf="http://www.w3.org/1999/02/22-rdf-syntax-ns#"
   xmlns:svg="http://www.w3.org/2000/svg"
   xmlns="http://www.w3.org/2000/svg"
   xmlns:sodipodi="http://sodipodi.sourceforge.net/DTD/sodipodi-0.dtd"
   xmlns:inkscape="http://www.inkscape.org/namespaces/inkscape"
   width="210mm"
   height="297mm"
   id="svg10748"
   version="1.1"
   inkscape:version="0.48.4 r9939"
   sodipodi:docname="hemicycle-groupes.svg">
  <defs
     id="defs10750" />
  <sodipodi:namedview
     id="base"
     pagecolor="#ffffff"
     bordercolor="#666666"
     borderopacity="1.0"
     inkscape:pageopacity="0.0"
     inkscape:pageshadow="2"
     inkscape:zoom="0.7"
     inkscape:cx="393.67339"
     inkscape:cy="455.20666"
     inkscape:document-units="px"
     inkscape:current-layer="layer1"
     showgrid="false"
     inkscape:window-width="1920"
     inkscape:window-height="986"
     inkscape:window-x="0"
     inkscape:window-y="0"
     inkscape:window-maximized="1" />
  <metadata
     id="metadata10753">
    <rdf:RDF>
      <cc:Work
         rdf:about="">
        <dc:format>image/svg+xml</dc:format>
        <dc:type
           rdf:resource="http://purl.org/dc/dcmitype/StillImage" />
        <dc:title></dc:title>
      </cc:Work>
    </rdf:RDF>
  </metadata>
  <g
     inkscape:label="Calque 1"
     inkscape:groupmode="layer"
     id="layer1">
    <path
       style="opacity:0.6;fill:#ffc000;fill-opacity:1;stroke:none;overflow:hidden"
       d="m 294.08811,223.6123 c -171.33175,0.007 -344.268755,111.57321 -378.250055,336.03124 l 18.7813,2.0313 c -2.6094,25.3385 -1.0938,51.5312 -1.0938,51.5312 l 26.25,-0.6562 c -1.2537,-26.1317 1.4688,-47.875 1.4688,-47.875 l 93.4687,10.25 c 0,0 2.4628,-27.926 8.0919,-42.89702 l -27.0294,-8.50927 c 0,0 14.9327,-54.59316 55.2813,-98.5 l 90.781255,77.8125 c 0,0 41.32139,-51.76788 112.71875,-50.9375 l -0.3125,-89.25 c 0,0 53.45795,-5.22331 115.78125,29.34375 l 13.28125,-27.1875 c 42.27768,20.81649 74.75,59 74.75,59 l 67.3125,-60.21875 c -13.86348,-18.1953 -21.3125,-23.6871 -21.3125,-23.6871 l 11.72246,-11.52794 C 485.49971,258.39231 390.201,223.60812 294.08811,223.6123 z"
       id="path10689"
       inkscape:connector-curvature="0"
       sodipodi:nodetypes="sccccccccccccccccccs" />
    <path
       inkscape:connector-curvature="0"
       id="path10661"
       d="m -38.755645,564.67484 c 0,0 -5.0665,40.1651 1.75,76.9687 l 92.0937,-7.1562 c -3.0771,-36.3555 -0.375,-59.5625 -0.375,-59.5625 l -93.4687,-10.25 z"
       style="opacity:0.6;fill:#0cc3d6;fill-opacity:1;stroke:none;overflow:hidden" />
    <path
       inkscape:connector-curvature="0"
       id="voteNG"
       d="m 91.056855,425.01855 c -40.3486,43.90684 -55.2813,98.5 -55.2813,98.5 l 27.0313,8.5 c -0.01,0.0206 -0.024,0.0418 -0.031,0.0625 l 66.562505,21.09379 c 0,0 -6.1836,16.5871 -6.4688,42.7812 l 21.4375,0 c -0.8288,18.7812 0.2957,28.0664 0.9063,31.5313 l 17.84373,-1.4063 c -0.9631,-9.3698 -2.8281,-36.3494 4.5625,-61 l -18.3437,-6.1875 c 0,0 9.8822,-31.92455 32.40622,-56.18749 l -90.625055,-77.6875 z"
       style="opacity:0.6;fill:#ea34d0;fill-opacity:1;stroke:none;overflow:hidden" />
    <path
       sodipodi:nodetypes="cccccccc"
       inkscape:connector-curvature="0"
       id="path10667"
       d="m 62.775555,532.08105 c -5.6126,14.98589 -8.0625,42.84379 -8.0625,42.84379 0,0 -2.7387,22.1921 0.4375,58.9687 0.1823,0.2785 74.438205,-5.1842 90.062505,-6.4062 -0.6105,-3.4649 -1.735,-12.7501 -0.9062,-31.5313 l -21.4375,0 c 0.2852,-26.1941 6.4687,-42.7812 6.4687,-42.7812 z"
       style="opacity:0.6;fill:#c00000;fill-opacity:1;stroke:none;overflow:hidden" />
    <path
       inkscape:connector-curvature="0"
       id="voteNI"
       d="m 423.30686,364.7998 -13.25,27.09375 33.09375,22.125 17.40625,-25.375 c -10.8634,-8.50864 -23.53064,-17.08867 -37.25,-23.84375 z M -84.161945,559.64354 c -2.436,25.2322 -2.5877,46.0852 -2.5,68.0313 l 21.0625,0 0,16.2187 28.5938,-2.25 c -1.8041,-9.74 -2.7963,-19.7009 -3.25,-29.0937 l -26.2188,0.6562 c 0,0 -1.5156,-26.1927 1.0938,-51.5312 l -18.7813,-2.0313 z"
       style="opacity:0.6;fill:#bfbfbf;fill-opacity:1;stroke:none;overflow:hidden" />
    <path
       inkscape:connector-curvature="0"
       id="path10671"
       d="m 303.55686,362.3623 c -5.98548,-0.0504 -9.3125,0.28125 -9.3125,0.28125 l 0.3125,89 c 7.3565,-0.32427 35.9522,-0.49998 62.375,14.59375 l -17.15625,37.84375 c 21.00837,7.95213 36.90625,27.03125 36.90625,27.03125 l 121.3125,-107.40625 c -0.27085,-0.31773 -14.99201,-17.49895 -37.4375,-35.0625 l -17.40625,25.375 -33.09375,-22.125 -0.0312,0.0937 c -46.74248,-25.9253 -88.5123,-29.47373 -106.46875,-29.625 z"
       style="opacity:0.6;fill:#ed7d31;fill-opacity:1;stroke:none;overflow:hidden" />
    <path
       inkscape:connector-curvature="0"
       id="path10673"
       d="m 635.08811,437.0498 -15.71875,8.0625 -0.28125,-0.625 -21.625,10.8125 1.875,3.84375 -20.53125,9.4375 -6.03125,-12.21875 -19.78125,9.875 0.9375,2.03125 -43.6875,23 C 493.27384,458.09087 480.05044,445.07316 476.96311,442.2998 l -100,88.5625 c 3.86439,4.07114 13.53675,15.95114 23.1875,41.15624 l 20.375,-6.8125 c 8.49211,19.7557 4.65625,59.3125 4.65625,59.3125 l 204.9375,17.6563 c 3.18505,-59.063 -0.71875,-77.4063 -0.71875,-77.4063 l 23.6875,-0.9687 c -0.73711,-18.9248 -1.96875,-21.1875 -1.96875,-21.1875 l 17.8125,-2.50004 C 660.55387,485.63583 635.08811,437.0498 635.08811,437.0498 z"
       style="opacity:0.6;fill:#2f5597;fill-opacity:1;stroke:none;overflow:hidden" />
    <path
       sodipodi:nodetypes="cccccccccccccccccc"
       inkscape:connector-curvature="0"
       id="path10675"
       d="m 555.68186,328.45605 -11.625,11.4375 c 0,0 7.44902,5.4922 21.3125,23.6875 l -67.3125,60.21875 c 0,0 -0.06,-0.0908 -0.0625,-0.0937 l -21,18.625 c 3.12967,2.81711 16.32145,15.84187 33.25,48.9375 l 43.6875,-23 -0.9375,-2.03125 19.78125,-9.875 6.03125,12.21875 20.53125,-9.4375 -1.875,-3.84375 21.625,-10.8125 0.28125,0.625 15.5625,-8 c 0,0 0.0332,-0.0393 0.0312,-0.0625 -36.31501,-72.45355 -79.2812,-108.5938 -79.2812,-108.5938 z"
       style="opacity:0.6;fill:#7030a0;fill-opacity:1;stroke:none;overflow:hidden" />
    <path
       inkscape:connector-curvature="0"
       style="font-size:medium;font-style:normal;font-variant:normal;font-weight:normal;font-stretch:normal;text-indent:0;text-align:start;text-decoration:none;line-height:normal;letter-spacing:normal;word-spacing:normal;text-transform:none;direction:ltr;block-progression:tb;writing-mode:lr-tb;text-anchor:start;baseline-shift:baseline;opacity:0.98000004;color:#000000;fill:#00ff00;fill-opacity:1;fill-rule:nonzero;stroke:none;stroke-width:10;marker:none;visibility:visible;display:inline;overflow:visible;enable-background:accumulate;font-family:Sans;-inkscape-font-specification:Sans"
       d="m 294.09826,223.62778 c -171.3317,0.007 -344.268705,111.57321 -378.250005,336.03126 l 18.7812,2.0312 c -2.6094,25.3385 -1.0937,51.5313 -1.0937,51.5313 l 26.25,-0.6563 c -1.2537,-26.1317 1.4687,-47.875 1.4687,-47.875 l 93.4688,10.25 c 0,0 2.4646,-27.9352 8.0938,-42.90621 l -27.0313,-8.5 c 0,0 14.9326,-54.59316 55.2813,-98.5 l 90.781205,77.8125 c 0,0 41.32139,-51.76788 112.71875,-50.9375 l -0.3125,-89.25 c 0,0 53.45795,-5.22331 115.78125,29.34375 l 13.28125,-27.1875 c 42.27768,20.81649 74.75,59 74.75,59 l 67.3125,-60.21875 c -13.86348,-18.1953 -21.3125,-23.6875 -21.3125,-23.6875 l 11.71875,-11.53125 c -70.27961,-69.9737 -165.57461,-104.75418 -261.6875,-104.75 z m 0,5 c 93.26182,-0.004 185.56874,33.22296 254.46875,99.8125 l -8.03125,7.875 -4.15625,4.125 4.71875,3.46875 c 0,0 5.90857,4.54367 17.40625,19.09375 l -60.09375,53.75 c -7.90184,-8.77888 -35.85118,-38.19249 -72.90625,-56.4375 l -4.5,-2.21875 -2.1875,4.5 -11.03125,22.59375 C 346.21682,352.7252 293.75451,357.65903 293.75451,357.65903 l -4.53125,0.4375 0.0312,4.5625 0.28125,84.40625 c -59.31881,1.35499 -97.3539,37.19931 -108.125,48.8125 l -87.093755,-74.65625 -3.6876,-3.15625 -3.25,3.5625 c -41.3298,44.97472 -56.4374,100.5625 -56.4374,100.5625 l -1.25,4.65625 4.5937,1.4375 22.2187,7 c -4.0612,13.61061 -5.6302,28.27721 -6.1874,34.12501 l -88.5313,-9.7188 -4.9063,-0.5312 -0.5937,4.9062 c 0,0 -2.3022,19.4533 -1.5937,43.625 l -16.3126,0.4063 c -0.2711,-6.0903 -0.9519,-24.8275 1.2188,-45.9063 l 0.5,-4.9375 -4.9375,-0.5625 -13.5,-1.4687 C -42.836245,336.50559 126.26586,228.63464 294.09821,228.62778 z"
       id="voteREM" />
    <path
       inkscape:connector-curvature="0"
       style="font-size:medium;font-style:normal;font-variant:normal;font-weight:normal;font-stretch:normal;text-indent:0;text-align:start;text-decoration:none;line-height:normal;letter-spacing:normal;word-spacing:normal;text-transform:none;direction:ltr;block-progression:tb;writing-mode:lr-tb;text-anchor:start;baseline-shift:baseline;color:#000000;fill:#00ff00;fill-opacity:1;fill-rule:nonzero;stroke:none;stroke-width:10;marker:none;visibility:visible;display:inline;overflow:visible;enable-background:accumulate;font-family:Sans;-inkscape-font-specification:Sans"
       d="m 555.69201,328.47153 -11.625,11.4375 c 0,0 7.44902,5.4922 21.3125,23.6875 l -67.3125,60.21875 c 0,0 -0.06,-0.0908 -0.0625,-0.0937 l -21,18.625 c 3.12967,2.81711 16.32145,15.84187 33.25,48.9375 l 43.6875,-23 -0.9375,-2.03125 19.78125,-9.875 6.03125,12.21875 20.53125,-9.4375 -1.875,-3.84375 21.625,-10.8125 0.28125,0.625 15.5625,-8 c 0,0 0.0332,-0.0393 0.0312,-0.0625 C 598.6582,364.61178 555.69196,328.47158 555.69196,328.47158 z m 0.0937,6.90625 c 7.8802,7.10011 41.20073,39.15656 72.375,99.59375 l -6.40625,3.28125 -0.25,-0.5625 -4.65625,2.3125 -21.625,10.8125 -4.4375,2.21875 1.8125,3.6875 -11.46875,5.28125 -3.875,-7.84375 -2.21875,-4.5 -4.5,2.21875 -19.78125,9.875 -4.34375,2.1875 0.96875,2.125 -35.0625,18.46875 c -12.34303,-23.25938 -22.4387,-35.93906 -28.0625,-41.96875 l 12.75,-11.28125 0.0625,0.0937 4.3125,-3.84375 67.3125,-60.21875 3.46875,-3.09375 -2.8125,-3.65625 c -8.9795,-11.78526 -14.45588,-17.37627 -18.0625,-20.75 l 4.5,-4.4375 z"
       id="voteLC" />
    <path
       inkscape:connector-curvature="0"
       style="fill:#00ff00;fill-opacity:1;stroke:none;overflow:hidden"
       d="m 299.56701,362.37778 c -3.46085,0.072 -5.3125,0.28125 -5.3125,0.28125 l 0.3125,89 c 7.3565,-0.32427 35.9522,-0.49998 62.375,14.59375 l -17.15625,37.84375 c 21.00837,7.95213 36.90625,27.03125 36.90625,27.03125 l 121.3125,-107.40625 c -0.27085,-0.31773 -14.99201,-17.49895 -37.4375,-35.0625 l -17.40625,25.375 -33.09375,-22.125 -0.0312,0.0937 c -46.74248,-25.9253 -88.5123,-29.47373 -106.46875,-29.625 -1.49637,-0.0126 -2.84638,-0.024 -4,0 z m 3.9375,4.96875 c 17.36312,0.14627 58.28692,3.59365 104.09375,29 l 0.65625,0.34375 32.125,21.5 4.09375,2.71875 2.8125,-4.0625 14.28125,-20.8125 c 16.08228,13.13327 25.7082,23.35406 29.28125,27.34375 l -113.78125,100.75 c -5.26865,-5.54385 -16.38558,-15.87939 -30.6875,-22.53125 l 15.09375,-33.28125 1.90625,-4.15625 -3.96875,-2.25 c -24.01801,-13.72002 -48.39901,-15.27766 -59.875,-15.25 l -0.25,-79.1875 c 1.46771,-0.0672 1.42968,-0.14849 4.21875,-0.125 z"
       id="voteMODEM" />
    <path
       style="font-size:medium;font-style:normal;font-variant:normal;font-weight:normal;font-stretch:normal;text-indent:0;text-align:start;text-decoration:none;line-height:normal;letter-spacing:normal;word-spacing:normal;text-transform:none;direction:ltr;block-progression:tb;writing-mode:lr-tb;text-anchor:start;baseline-shift:baseline;opacity:1;color:#000000;fill:#00ff00;fill-opacity:1;fill-rule:nonzero;stroke:none;stroke-width:10;marker:none;visibility:visible;display:inline;overflow:hidden;enable-background:accumulate;font-family:Sans;-inkscape-font-specification:Sans"
       d="M 635.09375 437.0625 L 619.375 445.125 L 619.09375 444.5 L 597.46875 455.3125 L 599.34375 459.15625 L 578.8125 468.59375 L 572.78125 456.375 L 553 466.25 L 553.9375 468.28125 L 510.25 491.28125 C 493.27948 458.10357 480.05608 445.08586 476.96875 442.3125 L 376.96875 530.875 C 380.83314 534.94614 390.5055 546.82615 400.15625 572.03125 L 420.53125 565.21875 C 429.02336 584.97445 425.1875 624.53125 425.1875 624.53125 L 630.125 642.1875 C 633.31005 583.1245 629.40625 564.78125 629.40625 564.78125 L 653.09375 563.8125 C 652.35664 544.8877 651.125 542.625 651.125 542.625 L 668.9375 540.125 C 660.55951 485.64853 635.09375 437.0625 635.09375 437.0625 z M 632.8125 443.84375 C 637.78959 453.93502 655.31524 491.61494 663.03125 535.875 L 650.4375 537.65625 L 643.28125 538.65625 L 646.5 544.5625 C 646.5689 544.84683 646.69999 545.49891 646.875 546.78125 C 647.13484 548.68519 647.45427 553.99074 647.75 559.03125 L 629.1875 559.78125 L 623.28125 560 L 624.5 565.8125 C 624.5 565.8125 625.40104 569.80321 625.96875 581.5625 C 626.49643 592.49262 626.52912 610.72228 625.28125 636.71875 L 430.5 619.9375 C 430.77817 615.84525 431.09625 610.05248 431.03125 602.21875 C 430.92637 589.57934 429.95708 574.4599 425.125 563.21875 L 423.3125 559 L 418.9375 560.46875 L 402.90625 565.84375 C 395.64055 548.11192 388.62896 537.21196 383.9375 531.375 L 476.75 449.15625 C 481.9566 454.68286 492.5202 467.60566 505.78125 493.53125 L 508.09375 498.0625 L 512.5625 495.6875 L 556.25 472.6875 L 560.46875 470.46875 L 559.5625 468.53125 L 570.5 463.09375 L 574.3125 470.78125 L 576.46875 475.15625 L 580.90625 473.125 L 601.4375 463.6875 L 606.0625 461.5625 L 604.125 457.5625 L 616.65625 451.28125 L 616.96875 451.96875 L 621.65625 449.5625 L 632.8125 443.84375 z "
       id="voteLR" />
    <path
       style="font-size:medium;font-style:normal;font-variant:normal;font-weight:normal;font-stretch:normal;text-indent:0;text-align:start;text-decoration:none;line-height:normal;letter-spacing:normal;word-spacing:normal;text-transform:none;direction:ltr;block-progression:tb;writing-mode:lr-tb;text-anchor:start;baseline-shift:baseline;opacity:1;color:#000000;fill:#00ff00;fill-opacity:1;fill-rule:nonzero;stroke:none;stroke-width:10;marker:none;visibility:visible;display:inline;overflow:hidden;enable-background:accumulate;font-family:Sans;-inkscape-font-specification:Sans"
       d="M 423.3125 364.8125 L 410.0625 391.90625 L 443.15625 414.03125 L 460.5625 388.65625 C 449.6991 380.14761 437.03186 371.56758 423.3125 364.8125 z M 425.53125 371.65625 C 435.69324 377.04634 445.08934 383.40431 453.65625 389.875 L 441.8125 407.125 L 416.46875 390.1875 L 425.53125 371.65625 z M -84.15625 559.65625 C -86.59225 584.88845 -86.74395 605.7414 -86.65625 627.6875 L -65.59375 627.6875 L -65.59375 643.90625 L -37 641.65625 C -38.8041 631.91625 -39.7963 621.9553 -40.25 612.5625 L -66.46875 613.21875 C -66.46875 613.21875 -67.9844 587.026 -65.375 561.6875 L -84.15625 559.65625 z M -79.59375 565.1875 L -70.6875 566.125 C -72.689201 590.28677 -71.46875 613.5 -71.46875 613.5 L -71.1875 618.3125 L -66.34375 618.21875 L -44.875 617.6875 C -44.449911 624.03434 -43.73188 630.52256 -42.71875 637.0625 L -60.59375 638.46875 L -60.59375 627.6875 L -60.59375 622.6875 L -65.59375 622.6875 L -81.625 622.6875 C -81.65861 604.12479 -81.3901 586.01742 -79.59375 565.1875 z "
       id="path11359" />
    <path
       style="font-size:medium;font-style:normal;font-variant:normal;font-weight:normal;font-stretch:normal;text-indent:0;text-align:start;text-decoration:none;line-height:normal;letter-spacing:normal;word-spacing:normal;text-transform:none;direction:ltr;block-progression:tb;writing-mode:lr-tb;text-anchor:start;baseline-shift:baseline;opacity:1;color:#000000;fill:#00ff00;fill-opacity:1;fill-rule:nonzero;stroke:none;stroke-width:10;marker:none;visibility:visible;display:inline;overflow:hidden;enable-background:accumulate;font-family:Sans;-inkscape-font-specification:Sans"
       d="M 91.0625 425.03125 C 50.7139 468.93809 35.78125 523.53125 35.78125 523.53125 L 62.8125 532.03125 C 62.8025 532.05185 62.78825 532.07305 62.78125 532.09375 L 129.34375 553.1875 C 129.34375 553.1875 123.1602 569.77465 122.875 595.96875 L 144.3125 595.96875 C 143.4837 614.74995 144.60815 624.0351 145.21875 627.5 L 163.0625 626.09375 C 162.0994 616.72395 160.2344 589.74435 167.625 565.09375 L 149.28125 558.90625 C 149.28125 558.90625 159.16348 526.98169 181.6875 502.71875 L 91.0625 425.03125 z M 91.5625 432.03125 L 174.6875 503.28125 C 153.66429 527.94432 144.5 557.40625 144.5 557.40625 L 143.0625 562.0625 L 147.6875 563.625 L 161.65625 568.34375 C 156.26895 589.5006 156.83865 610.21362 157.71875 621.46875 L 149.6875 622.125 C 149.17933 617.52524 148.69108 610.26925 149.3125 596.1875 L 149.53125 590.96875 L 144.3125 590.96875 L 128.1875 590.96875 C 129.14893 568.76569 134.03125 554.90625 134.03125 554.90625 L 135.875 550 L 130.84375 548.40625 L 69.8125 529.0625 L 69.84375 529 L 64.3125 527.25 L 42.09375 520.25 C 45.394072 509.63521 59.445051 468.70555 91.5625 432.03125 z "
       id="path11370" />
    <path
       style="font-size:medium;font-style:normal;font-variant:normal;font-weight:normal;font-stretch:normal;text-indent:0;text-align:start;text-decoration:none;line-height:normal;letter-spacing:normal;word-spacing:normal;text-transform:none;direction:ltr;block-progression:tb;writing-mode:lr-tb;text-anchor:start;baseline-shift:baseline;opacity:1;color:#000000;fill:#00ff00;fill-opacity:1;fill-rule:nonzero;stroke:none;stroke-width:10;marker:none;visibility:visible;display:inline;overflow:hidden;enable-background:accumulate;font-family:Sans;-inkscape-font-specification:Sans"
       d="M -38.75 564.6875 C -38.75 564.6875 -43.8165 604.85265 -37 641.65625 L 55.09375 634.5 C 52.01665 598.1445 54.71875 574.9375 54.71875 574.9375 L -38.75 564.6875 z M -34.28125 570.21875 L 49.4375 579.375 C 48.927868 584.95664 47.784826 601.62267 49.8125 629.875 L -32.75 636.28125 C -37.177785 608.31803 -35.246584 580.31257 -34.28125 570.21875 z "
       id="voteFI" />
    <path
       style="font-size:medium;font-style:normal;font-variant:normal;font-weight:normal;font-stretch:normal;text-indent:0;text-align:start;text-decoration:none;line-height:normal;letter-spacing:normal;word-spacing:normal;text-transform:none;direction:ltr;block-progression:tb;writing-mode:lr-tb;text-anchor:start;baseline-shift:baseline;opacity:1;color:#000000;fill:#00ff00;fill-opacity:1;fill-rule:nonzero;stroke:none;stroke-width:10;marker:none;visibility:visible;display:inline;overflow:hidden;enable-background:accumulate;font-family:Sans;-inkscape-font-specification:Sans"
       d="M 62.78125 532.09375 C 57.16865 547.07964 54.71875 574.9375 54.71875 574.9375 C 54.71875 574.9375 51.98005 597.12965 55.15625 633.90625 C 55.33855 634.18475 129.59445 628.722 145.21875 627.5 C 144.60825 624.0351 143.4837 614.74995 144.3125 595.96875 L 122.875 595.96875 C 123.1602 569.77465 129.34375 553.1875 129.34375 553.1875 L 62.78125 532.09375 z M 66.21875 538.40625 L 123.15625 556.46875 C 121.22755 563.34203 118.0798 577.09651 117.875 595.90625 L 117.8125 600.96875 L 122.875 600.96875 L 139.1875 600.96875 C 138.89464 611.91641 139.2666 618.33088 139.75 622.875 C 130.25825 623.60234 112.51647 624.94604 94.03125 626.28125 C 83.765225 627.02278 73.968015 627.69634 66.75 628.1875 C 63.86053 628.38412 61.771147 628.50398 59.84375 628.625 C 57.388773 595.48089 59.6875 575.53125 59.6875 575.53125 L 59.6875 575.4375 L 59.6875 575.375 C 59.6875 575.375 62.030375 552.78579 66.21875 538.40625 z "
       id="voteGDR"
       inkscape:label="#voteGDR" />
  </g>
</svg>
