<?xml version="1.0" encoding="UTF-8" standalone="no"?>
<!-- Created with Inkscape (http://www.inkscape.org/) -->

<svg
   xmlns:dc="http://purl.org/dc/elements/1.1/"
   xmlns:cc="http://creativecommons.org/ns#"
   xmlns:rdf="http://www.w3.org/1999/02/22-rdf-syntax-ns#"
   xmlns:svg="http://www.w3.org/2000/svg"
   xmlns="http://www.w3.org/2000/svg"
   xmlns:sodipodi="http://sodipodi.sourceforge.net/DTD/sodipodi-0.dtd"
   xmlns:inkscape="http://www.inkscape.org/namespaces/inkscape"
   width="210mm"
   height="297mm"
   id="svg10748"
   version="1.1"
   inkscape:version="0.48.4 r9939"
   sodipodi:docname="hemicycle-groupes.svg">
  <defs
     id="defs10750" />
  <sodipodi:namedview
     id="base"
     pagecolor="#ffffff"
     bordercolor="#666666"
     borderopacity="1.0"
     inkscape:pageopacity="0.0"
     inkscape:pageshadow="2"
     inkscape:zoom="0.24748737"
     inkscape:cx="299.7292"
     inkscape:cy="455.20666"
     inkscape:document-units="px"
     inkscape:current-layer="layer1"
     showgrid="false"
     inkscape:window-width="1920"
     inkscape:window-height="986"
     inkscape:window-x="0"
     inkscape:window-y="0"
     inkscape:window-maximized="1" />
  <metadata
     id="metadata10753">
    <rdf:RDF>
      <cc:Work
         rdf:about="">
        <dc:format>image/svg+xml</dc:format>
        <dc:type
           rdf:resource="http://purl.org/dc/dcmitype/StillImage" />
        <dc:title />
      </cc:Work>
    </rdf:RDF>
  </metadata>
  <g
     inkscape:label="Calque 1"
     inkscape:groupmode="layer"
     id="layer1">
    <g
       id="g8205">
      <path
         id="path7331"
         d="M 490.96875 560.8125 L 472.09375 563.46875 C 472.09375 563.46875 473.40438 565.86272 474.1875 585.96875 L 449.03125 587 C 449.03125 587 453.13641 606.42035 449.78125 668.9375 L 478.8125 671.09375 L 478.8125 656.25 L 496.71875 656.03125 C 496.71875 656.03125 498.7877 611.42032 490.96875 560.8125 z "
         style="fill:#bfbfbf;fill-opacity:1;overflow:hidden;opacity:0.59999999999999998" />
      <path
         sodipodi:nodetypes="sccccccccccccccccccs"
         inkscape:connector-curvature="0"
         id="path10689"
         d="m 92.788867,224.54416 c -182.025781,0.007 -365.757017,118.53729 -401.859327,357.00533 l 19.95357,2.15809 c -2.77227,26.92006 -1.16207,54.74763 -1.16207,54.74763 l 27.88845,-0.69716 c -1.33195,-27.76276 1.56048,-50.86322 1.56048,-50.86322 l 99.30275,10.88978 c 0,0 2.61652,-29.66906 8.59697,-45.57453 l -28.7165,-9.04039 c 0,0 15.86476,-58.00071 58.7318,-104.64809 l 96.447557,82.66933 c 0,0 43.900552,-54.99908 119.754328,-54.11687 L 92.95487,372.25334 c 0,0 56.79464,-5.54934 123.00798,31.1753 l 14.11023,-28.88447 c 44.91653,22.1158 79.41567,62.68261 79.41567,62.68261 l 71.51396,-63.97743 c -14.7288,-19.331 -22.64277,-25.16558 -22.64277,-25.16558 l 12.45414,-12.24748 C 296.14782,261.49504 194.90084,224.53972 92.788867,224.54416 z"
         style="opacity:0.6;fill:#ffc000;fill-opacity:1;stroke:none;overflow:hidden" />
      <path
         style="opacity:0.6;fill:#0cc3d6;fill-opacity:1;stroke:none;overflow:hidden"
         d="m -260.83003,586.89483 c 0,0 -5.38274,42.67209 1.85923,81.77287 l 97.84192,-7.60287 c -3.26916,-38.62471 -0.3984,-63.28022 -0.3984,-63.28022 l -99.30275,-10.88978 z"
         id="path10661"
         inkscape:connector-curvature="0" />
      <path
         style="opacity:0.6;fill:#ea34d0;fill-opacity:1;stroke:none;overflow:hidden"
         d="m -122.91501,438.5216 c -42.86704,46.64738 -58.7318,104.64809 -58.7318,104.64809 l 28.71852,9.03054 c -0.0106,0.0219 -0.0255,0.0444 -0.0329,0.0664 l 70.717145,22.41041 c 0,0 -6.569562,17.62242 -6.872563,45.45148 l 22.775566,0 c -0.880531,19.95346 0.314157,29.81822 0.962869,33.49939 l 18.957484,-1.49408 c -1.023214,-9.95463 -3.004622,-38.61822 4.847278,-64.80744 l -19.488661,-6.57371 c 0,0 10.499018,-33.91719 34.428922,-59.69455 L -122.9148,438.5216 z"
         id="voteNG"
         inkscape:connector-curvature="0" />
      <path
         style="opacity:0.6;fill:#c00000;fill-opacity:1;stroke:none;overflow:hidden"
         d="m -152.96155,552.26663 c -5.96292,15.92127 -8.56573,45.51798 -8.56573,45.51798 0,0 -2.90965,23.57727 0.4648,62.64935 0.19368,0.29589 79.084425,-5.50778 95.683948,-6.80605 -0.648606,-3.68117 -1.843294,-13.54593 -0.962762,-33.49939 l -22.775567,0 c 0.303001,-27.82906 6.872458,-45.45148 6.872458,-45.45148 z"
         id="path10667"
         inkscape:connector-curvature="0"
         sodipodi:nodetypes="cccccccc" />
      <path
         style="opacity:0.6;fill:#bfbfbf;fill-opacity:1;stroke:none;overflow:hidden"
         d="m 230.07308,374.54417 -14.07703,28.78487 35.15937,23.50598 18.49269,-26.95884 c -11.54146,-9.03972 -24.99935,-18.15529 -39.57503,-25.33201 z m -539.14354,207.00532 c -2.58805,26.80713 -2.74922,48.96171 -2.65604,72.27762 l 22.37716,0 0,17.23103 30.37854,-2.39044 c -1.91671,-10.34795 -2.97084,-20.93058 -3.45286,-30.90965 l -27.8553,0.69716 c 0,0 -1.6102,-27.82757 1.16207,-54.74763 l -19.95357,-2.15809 z"
         id="voteNI"
         inkscape:connector-curvature="0" />
      <path
         style="opacity:0.6;fill:#ed7d31;fill-opacity:1;stroke:none;overflow:hidden"
         d="m 102.84863,371.95453 c -6.359077,-0.0535 -9.89376,0.29881 -9.89376,0.29881 l 0.332005,94.55512 c 7.815675,-0.34451 38.196235,-0.53119 66.268265,15.50465 l -18.22709,40.20585 c 22.31965,8.44847 39.20983,28.71846 39.20983,28.71846 L 309.42235,437.12718 c -0.28775,-0.33756 -15.92776,-18.59118 -39.77424,-37.251 l -18.49269,26.95884 -35.15937,-23.50598 -0.0332,0.0995 C 166.30289,375.8851 121.92592,372.11519 102.84868,371.95448 z"
         id="path10671"
         inkscape:connector-curvature="0" />
      <path
         style="opacity:0.6;fill:#2f5597;fill-opacity:1;stroke:none;overflow:hidden"
         d="m 455.0731,451.30381 -16.69987,8.56574 -0.29881,-0.66401 -22.97477,11.48738 1.99204,4.08367 -21.81275,10.02656 -6.40771,-12.98141 -21.01594,10.49137 0.99602,2.15803 -46.41435,24.4356 C 304.40719,473.6582 290.35843,459.82796 287.07839,456.8815 l -106.24171,94.09031 c 4.1056,4.32525 14.38168,16.94677 24.6348,43.7251 l 21.64675,-7.23772 c 9.02216,20.98879 4.94688,63.01461 4.94688,63.01461 l 217.7291,18.75836 c 3.38385,-62.74954 -0.76361,-82.23778 -0.76361,-82.23778 l 25.16601,-1.02916 c -0.78312,-20.10603 -2.09164,-22.50996 -2.09164,-22.50996 l 18.92431,-2.65609 C 482.12836,502.92244 455.0731,451.30381 455.0731,451.30381 z"
         id="path10673"
         inkscape:connector-curvature="0" />
      <path
         style="opacity:0.6;fill:#7030a0;fill-opacity:1;stroke:none;overflow:hidden"
         d="m 370.71054,335.93195 -12.3506,12.1514 c 0,0 7.91397,5.835 22.64277,25.166 l -71.51396,63.97743 c 0,0 -0.0637,-0.0965 -0.0664,-0.0996 l -22.31076,19.78752 c 3.32502,2.99295 17.34019,16.83068 35.32537,51.99204 l 46.41435,-24.43559 -0.99602,-2.15804 21.01594,-10.49137 6.40771,12.98141 21.81275,-10.02656 -1.99204,-4.08367 22.97477,-11.48738 0.29881,0.66401 16.53387,-8.49934 c 0,0 0.0353,-0.0417 0.0331,-0.0664 -38.58168,-76.97589 -84.2297,-115.37191 -84.2297,-115.37191 z"
         id="path10675"
         inkscape:connector-curvature="0"
         sodipodi:nodetypes="cccccccccccccccccc" />
      <path
         id="voteREM"
         d="m 92.799651,224.56061 c -182.025728,0.007 -365.756961,118.53728 -401.859271,357.00535 l 19.95347,2.15798 c -2.77228,26.92006 -1.16197,54.74774 -1.16197,54.74774 l 27.88845,-0.69727 c -1.33195,-27.76276 1.56037,-50.86321 1.56037,-50.86321 l 99.30285,10.88977 c 0,0 2.61844,-29.67883 8.59899,-45.58429 l -28.71851,-9.03055 c 0,0 15.86465,-58.0007 58.7318,-104.64808 l 96.447501,82.66933 c 0,0 43.900551,-54.99908 119.754328,-54.11687 l -0.332006,-94.82073 c 0,0 56.794637,-5.54933 123.007977,31.1753 l 14.11023,-28.88446 c 44.91653,22.11579 79.41568,62.68261 79.41568,62.68261 l 71.51395,-63.97743 c -14.7288,-19.331 -22.64277,-25.16601 -22.64277,-25.16601 L 370.82093,335.8488 C 296.15467,261.50754 194.91163,224.55616 92.799651,224.56061 z m 0,5.31208 C 191.8826,229.86844 289.95105,265.16933 363.1516,335.9152 l -8.53254,8.36653 -4.41567,4.38247 5.01328,3.68526 c 0,0 6.27737,4.82728 18.4927,20.28553 l -63.84463,57.10492 c -8.39505,-9.32683 -38.0889,-40.57636 -77.45684,-59.96017 l -4.78088,-2.35724 -2.32404,4.78088 -11.71979,24.00399 C 148.1713,361.71591 92.434445,366.9577 92.434445,366.9577 l -4.814078,0.4648 0.03315,4.84728 0.298804,89.67465 c -63.021318,1.43956 -103.430448,39.52118 -114.873849,51.85923 l -92.52989,-79.31608 -3.91777,-3.35325 -3.45286,3.78486 c -43.90949,47.78191 -59.96006,106.83932 -59.96006,106.83932 l -1.32802,4.94688 4.88043,1.52723 23.60552,7.43691 c -4.31469,14.46015 -5.98162,30.0422 -6.5736,36.255 l -94.05716,-10.32542 -5.21254,-0.56436 -0.63076,5.21243 c 0,0 -2.44589,20.66752 -1.69317,46.34795 l -17.33079,0.43166 c -0.28802,-6.47044 -1.01131,-26.37716 1.29488,-48.77164 l 0.53121,-5.24568 -5.24569,-0.59761 -14.34263,-1.56037 c 37.7191,-232.36757 217.376069,-346.97151 395.684027,-346.9788 z"
         style="font-size:medium;font-style:normal;font-variant:normal;font-weight:normal;font-stretch:normal;text-indent:0;text-align:start;text-decoration:none;line-height:normal;letter-spacing:normal;word-spacing:normal;text-transform:none;direction:ltr;block-progression:tb;writing-mode:lr-tb;text-anchor:start;baseline-shift:baseline;opacity:0.98000004;color:#000000;fill:#00ff00;fill-opacity:1;fill-rule:nonzero;stroke:none;stroke-width:10;marker:none;visibility:visible;display:inline;overflow:visible;enable-background:accumulate;font-family:Sans;-inkscape-font-specification:Sans"
         inkscape:connector-curvature="0" />
      <path
         id="voteLC"
         d="m 370.72132,335.9484 -12.3506,12.15139 c 0,0 7.91397,5.83501 22.64277,25.16601 l -71.51395,63.97743 c 0,0 -0.0638,-0.0965 -0.0664,-0.0995 l -22.31076,19.78752 c 3.32501,2.99294 17.34019,16.83067 35.32537,51.99204 l 46.41434,-24.4356 -0.99601,-2.15803 21.01594,-10.49137 6.4077,12.98141 21.81275,-10.02656 -1.99203,-4.08367 22.97477,-11.48738 0.2988,0.66401 16.53387,-8.49934 c 0,0 0.0353,-0.0417 0.0331,-0.0664 -38.58169,-76.97589 -84.22976,-115.37186 -84.22976,-115.37186 z m 0.0996,7.33732 c 8.37206,7.54327 43.77236,41.6006 76.89244,105.8101 l -6.80611,3.48606 -0.2656,-0.59761 -4.94688,2.45684 -22.97477,11.48738 -4.71448,2.35724 1.92563,3.91766 -12.18459,5.61089 -4.11687,-8.33333 -2.35724,-4.78088 -4.78088,2.35724 -21.01593,10.49137 -4.61488,2.32403 1.02922,2.25764 -37.251,19.62152 C 311.52548,477.0407 300.79967,463.5696 294.82485,457.16355 l 13.54582,-11.98539 0.0664,0.0995 4.58167,-4.08366 71.51395,-63.97743 3.68526,-3.28685 -2.98805,-3.88447 C 375.68993,357.52443 369.87173,351.58445 366.04,348.00014 l 4.78087,-4.71448 z"
         style="font-size:medium;font-style:normal;font-variant:normal;font-weight:normal;font-stretch:normal;text-indent:0;text-align:start;text-decoration:none;line-height:normal;letter-spacing:normal;word-spacing:normal;text-transform:none;direction:ltr;block-progression:tb;writing-mode:lr-tb;text-anchor:start;baseline-shift:baseline;color:#000000;fill:#00ff00;fill-opacity:1;fill-rule:nonzero;stroke:none;stroke-width:10;marker:none;visibility:visible;display:inline;overflow:visible;enable-background:accumulate;font-family:Sans;-inkscape-font-specification:Sans"
         inkscape:connector-curvature="0" />
      <path
         id="voteMODEM"
         d="m 98.609744,371.97098 c -3.676866,0.0765 -5.644091,0.2988 -5.644091,0.2988 l 0.332006,94.55512 c 7.815671,-0.34451 38.196231,-0.53118 66.268271,15.50465 l -18.2271,40.20585 c 22.31965,8.44848 39.20983,28.71846 39.20983,28.71846 L 309.43314,437.14363 c -0.28776,-0.33756 -15.92777,-18.59119 -39.77424,-37.251 l -18.4927,26.95883 -35.15937,-23.50598 -0.0331,0.0995 c -49.66001,-27.54348 -94.03698,-31.31339 -113.11422,-31.4741 -1.58977,-0.0134 -3.024047,-0.0255 -4.249673,0 z m 4.183266,5.27888 c 18.44688,0.1554 61.92502,3.81796 110.59098,30.8101 l 0.69721,0.3652 34.13015,22.84197 4.34927,2.88845 2.98805,-4.31607 15.17264,-22.11156 c 17.08609,13.95301 27.31284,24.81176 31.1089,29.05047 L 180.94707,543.81694 c -5.5975,-5.88988 -17.40832,-16.87053 -32.60293,-23.93758 l 16.03586,-35.35857 2.02524,-4.41567 -4.21647,-2.39044 C 136.67162,463.1383 110.76883,461.48343 98.576543,461.51282 l -0.265604,-84.13015 c 1.55932,-0.0714 1.518917,-0.15776 4.482071,-0.13281 z"
         style="fill:#00ff00;fill-opacity:1;stroke:none;overflow:hidden"
         inkscape:connector-curvature="0" />
      <path
         inkscape:connector-curvature="0"
         id="voteLR"
         d="m 455.07909,451.3173 -16.69987,8.56574 -0.2988,-0.66401 -22.97477,11.48738 1.99203,4.08367 -21.81275,10.02656 -6.40771,-12.98141 -21.01593,10.49137 0.99601,2.15804 -46.41434,24.43559 c -18.02978,-35.24854 -32.07854,-49.07877 -35.35857,-52.02524 l -106.24171,94.09032 c 4.10559,4.32524 14.38167,16.94677 24.63479,43.7251 l 21.64675,-7.23772 c 9.02216,20.9888 4.94688,63.01462 4.94688,63.01462 l 217.72911,18.7583 c 3.38385,-62.74954 -0.76362,-82.23772 -0.76362,-82.23772 l 25.16601,-1.02922 c -0.78312,-20.10603 -2.09164,-22.50996 -2.09164,-22.50996 l 18.92431,-2.65605 C 482.13435,502.93593 455.07909,451.3173 455.07909,451.3173 z m -2.42364,7.20452 c 5.28775,10.72114 23.9073,50.75293 32.10492,97.77557 l -13.37982,1.89243 -7.60292,1.06242 3.41966,6.2749 c 0.0732,0.30208 0.21247,0.99486 0.3984,2.35724 0.27606,2.02278 0.61543,7.65948 0.92962,13.01461 l -19.72112,0.79681 -6.2749,0.2324 1.29482,6.1753 c 0,0 0.95728,4.2398 1.56042,16.73307 0.56062,11.61235 0.59535,30.97985 -0.73041,58.59895 L 237.71519,645.60683 c 0.29553,-4.34768 0.63347,-10.50202 0.56441,-18.8247 -0.11143,-13.42833 -1.14122,-29.49148 -6.2749,-41.43427 l -1.92563,-4.48207 -4.64808,1.56042 -17.03187,5.71049 c -7.7192,-18.8386 -15.16844,-30.4189 -20.15272,-36.62019 l 98.60558,-87.3506 c 5.53158,5.87156 16.75453,19.60097 30.8433,47.14476 l 2.45684,4.81407 4.74767,-2.52324 46.41435,-24.43559 4.48207,-2.35724 -0.96281,-2.05843 11.62019,-5.77689 4.05046,8.16733 2.29084,4.64807 4.71447,-2.15803 21.81275,-10.02656 4.91368,-2.25764 -2.05843,-4.24967 13.31341,-6.67331 0.33201,0.73042 4.98008,-2.55644 11.85259,-6.0757 z"
         style="font-size:medium;font-style:normal;font-variant:normal;font-weight:normal;font-stretch:normal;text-indent:0;text-align:start;text-decoration:none;line-height:normal;letter-spacing:normal;word-spacing:normal;text-transform:none;direction:ltr;block-progression:tb;writing-mode:lr-tb;text-anchor:start;baseline-shift:baseline;color:#000000;fill:#00ff00;fill-opacity:1;fill-rule:nonzero;stroke:none;stroke-width:10;marker:none;visibility:visible;display:inline;overflow:hidden;enable-background:accumulate;font-family:Sans;-inkscape-font-specification:Sans" />
      <path
         inkscape:connector-curvature="0"
         id="path11359"
         d="m 230.07907,374.55767 -14.07703,28.78486 35.15937,23.50598 18.4927,-26.95884 c -11.54147,-9.03972 -24.99936,-18.15529 -39.57504,-25.332 z m 2.35724,7.27091 c 10.79627,5.72653 20.77885,12.48134 29.88048,19.35591 l -12.58301,18.3267 -26.92563,-17.99469 9.62816,-19.68792 z M -309.06441,581.563 c -2.58805,26.80712 -2.74922,48.96165 -2.65604,72.27756 l 22.37716,0 0,17.23108 30.37849,-2.39044 c -1.91671,-10.34794 -2.97084,-20.93063 -3.45286,-30.9097 l -27.85525,0.69721 c 0,0 -1.61025,-27.82762 1.16202,-54.74768 l -19.95352,-2.15803 z m 4.84728,5.87649 9.46215,0.99602 c -2.12664,25.66988 -0.83001,50.33201 -0.83001,50.33201 l 0.2988,5.11288 5.14609,-0.0996 22.80876,-0.56441 c 0.45162,6.74299 1.21447,13.63619 2.29084,20.58433 l -18.99071,1.49403 0,-11.45419 0,-5.31208 -5.31208,0 -17.03188,0 c -0.0357,-19.72134 0.24957,-38.95892 2.15804,-61.08898 z"
         style="font-size:medium;font-style:normal;font-variant:normal;font-weight:normal;font-stretch:normal;text-indent:0;text-align:start;text-decoration:none;line-height:normal;letter-spacing:normal;word-spacing:normal;text-transform:none;direction:ltr;block-progression:tb;writing-mode:lr-tb;text-anchor:start;baseline-shift:baseline;color:#000000;fill:#00ff00;fill-opacity:1;fill-rule:nonzero;stroke:none;stroke-width:10;marker:none;visibility:visible;display:inline;overflow:hidden;enable-background:accumulate;font-family:Sans;-inkscape-font-specification:Sans" />
      <path
         inkscape:connector-curvature="0"
         id="path11370"
         d="m -122.90901,438.5351 c -42.86705,46.64737 -58.73175,104.64808 -58.73175,104.64808 l 28.71846,9.03055 c -0.0106,0.0219 -0.0258,0.0444 -0.0332,0.0664 l 70.717142,22.41036 c 0,0 -6.569509,17.62247 -6.872511,45.45153 l 22.775567,0 c -0.880532,19.95347 0.314103,29.81817 0.962815,33.49934 l 18.957505,-1.49403 c -1.023214,-9.95463 -3.004621,-38.61822 4.847278,-64.80744 l -19.488713,-6.5737 c 0,0 10.49905,-33.9172 34.428954,-59.69457 L -122.90901,438.5351 z m 0.53121,7.43692 88.313417,75.69721 c -22.335418,26.20247 -32.071716,57.50333 -32.071716,57.50333 l -1.527225,4.94688 4.913679,1.66003 14.840639,5.01328 c -5.723559,22.4774 -5.1183,44.48326 -4.183267,56.44091 l -8.532537,0.69721 c -0.539889,-4.88687 -1.058614,-12.59576 -0.398407,-27.55645 l 0.232404,-5.54449 -5.544489,0 -17.131476,0 c 1.02144,-23.58891 6.2085,-38.31341 6.2085,-38.31341 l 1.958831,-5.21249 -5.345286,-1.69322 -64.840647,-20.55114 0.0332,-0.0664 -5.87649,-1.85923 -23.60558,-7.43692 c 3.50632,-11.27733 18.43432,-54.7617 52.55645,-93.7251 z"
         style="font-size:medium;font-style:normal;font-variant:normal;font-weight:normal;font-stretch:normal;text-indent:0;text-align:start;text-decoration:none;line-height:normal;letter-spacing:normal;word-spacing:normal;text-transform:none;direction:ltr;block-progression:tb;writing-mode:lr-tb;text-anchor:start;baseline-shift:baseline;color:#000000;fill:#00ff00;fill-opacity:1;fill-rule:nonzero;stroke:none;stroke-width:10;marker:none;visibility:visible;display:inline;overflow:hidden;enable-background:accumulate;font-family:Sans;-inkscape-font-specification:Sans" />
      <path
         inkscape:connector-curvature="0"
         id="voteFI"
         d="m -260.82403,586.90828 c 0,0 -5.38274,42.67215 1.85923,81.77292 l 97.84197,-7.60292 c -3.26916,-38.62471 -0.3984,-63.28022 -0.3984,-63.28022 l -99.3028,-10.88978 z m 4.74767,5.8765 88.94424,9.72776 c -0.54145,5.93003 -1.75583,23.6363 0.3984,53.65206 l -87.71581,6.80611 c -4.70415,-29.7086 -2.65241,-59.46208 -1.62683,-70.18593 z"
         style="font-size:medium;font-style:normal;font-variant:normal;font-weight:normal;font-stretch:normal;text-indent:0;text-align:start;text-decoration:none;line-height:normal;letter-spacing:normal;word-spacing:normal;text-transform:none;direction:ltr;block-progression:tb;writing-mode:lr-tb;text-anchor:start;baseline-shift:baseline;color:#000000;fill:#00ff00;fill-opacity:1;fill-rule:nonzero;stroke:none;stroke-width:10;marker:none;visibility:visible;display:inline;overflow:hidden;enable-background:accumulate;font-family:Sans;-inkscape-font-specification:Sans" />
      <path
         inkscape:connector-curvature="0"
         inkscape:label="#voteGDR"
         id="voteGDR"
         d="m -152.9555,552.28013 c -5.96292,15.92126 -8.56573,45.51793 -8.56573,45.51793 0,0 -2.90965,23.57732 0.4648,62.64941 0.19368,0.29588 79.08442,-5.50784 95.683943,-6.80611 -0.648605,-3.68117 -1.843347,-13.54587 -0.962815,-33.49934 l -22.775567,0 c 0.303002,-27.82906 6.872511,-45.45153 6.872511,-45.45153 L -152.9555,552.28013 z m 3.65206,6.7065 60.491376,19.18991 c -2.049084,7.30229 -5.393307,21.91529 -5.61089,41.89908 l -0.0664,5.37848 5.378486,0 17.330679,0 c -0.311139,11.63099 0.08404,18.44583 0.59761,23.27358 -10.084198,0.77274 -28.93337,2.20031 -48.57238,3.61886 -10.9068,0.78781 -21.31553,1.50341 -28.98407,2.02523 -3.06982,0.20889 -5.28962,0.33623 -7.33732,0.46481 -2.60821,-35.21287 -0.166,-56.40771 -0.166,-56.40771 l 0,-0.0995 0,-0.0664 c 0,0 2.48911,-23.99916 6.93891,-39.27623 z"
         style="font-size:medium;font-style:normal;font-variant:normal;font-weight:normal;font-stretch:normal;text-indent:0;text-align:start;text-decoration:none;line-height:normal;letter-spacing:normal;word-spacing:normal;text-transform:none;direction:ltr;block-progression:tb;writing-mode:lr-tb;text-anchor:start;baseline-shift:baseline;color:#000000;fill:#00ff00;fill-opacity:1;fill-rule:nonzero;stroke:none;stroke-width:10;marker:none;visibility:visible;display:inline;overflow:hidden;enable-background:accumulate;font-family:Sans;-inkscape-font-specification:Sans" />
      <path
         id="voteNI2"
         d="M 490.96875 560.8125 L 472.09375 563.46875 C 472.09375 563.46875 473.40438 565.86272 474.1875 585.96875 L 449.03125 587 C 449.03125 587 453.13641 606.42035 449.78125 668.9375 L 478.8125 671.09375 L 478.8125 656.25 L 496.71875 656.03125 C 496.71875 656.03125 498.7877 611.42032 490.96875 560.8125 z M 486.6875 566.4375 C 492.46182 606.79383 492.12559 640.79592 491.84375 651.09375 L 478.75 651.25 L 473.8125 651.3125 L 473.8125 656.25 L 473.8125 665.6875 L 454.9375 664.28125 C 456.30272 636.10415 456.23447 616.35235 455.65625 604.28125 C 455.38088 598.53249 455.01872 594.74372 454.6875 591.78125 L 474.40625 590.96875 L 479.375 590.75 L 479.1875 585.78125 C 478.81639 576.25324 478.3454 571.13063 477.90625 567.6875 L 486.6875 566.4375 z "
         style="font-size:medium;font-style:normal;font-variant:normal;font-weight:normal;font-stretch:normal;text-indent:0;text-align:start;text-decoration:none;line-height:normal;letter-spacing:normal;word-spacing:normal;text-transform:none;direction:ltr;block-progression:tb;writing-mode:lr-tb;text-anchor:start;baseline-shift:baseline;color:#000000;fill:#00ff00;fill-opacity:1;fill-rule:nonzero;stroke:none;stroke-width:10;marker:none;visibility:visible;display:inline;overflow:hidden;enable-background:accumulate;font-family:Sans;-inkscape-font-specification:Sans" />
    </g>
  </g>
</svg>
